REM DIRINDEX 1\6,1\2\7,1\2\8,1\2\9,1\3\10,1\3\11,1\4\12,1\4\13,1\4\14,1\5\15,1\5\16,1\5\17
REM DIRNAME cjc041,folder01,folder02,folder03,folder04,folder05,folder06,folder07,folder08,folder09,folder10,folder11,folder12,folder13,folder14,folder15,folder16
TITLE ""
FILE "3Q_t_0301-0315.mp3" MP3
  TRACK 01 AUDIO
    TITLE "6:cjc041_2207"
    INDEX 01 00:00:00
  TRACK 02 AUDIO
    TITLE "0:"
    INDEX 01 00:07:29
  TRACK 03 AUDIO
    TITLE "10:cjc041_2208"
    INDEX 01 00:08:36
  TRACK 04 AUDIO
    TITLE "0:"
    INDEX 01 00:09:49
  TRACK 05 AUDIO
    TITLE "11:cjc041_2209"
    INDEX 01 00:10:35
  TRACK 06 AUDIO
    TITLE "0:"
    INDEX 01 00:11:52
  TRACK 07 AUDIO
    TITLE "10:cjc041_2210"
    INDEX 01 00:12:36
  TRACK 08 AUDIO
    TITLE "0:"
    INDEX 01 00:13:47
  TRACK 09 AUDIO
    TITLE "11:cjc041_2211"
    INDEX 01 00:14:21
  TRACK 10 AUDIO
    TITLE "0:"
    INDEX 01 00:17:16
  TRACK 11 AUDIO
    TITLE "10:cjc041_2212"
    INDEX 01 00:17:63
  TRACK 12 AUDIO
    TITLE "0:"
    INDEX 01 00:19:11
  TRACK 13 AUDIO
    TITLE "11:cjc041_2213"
    INDEX 01 00:19:63
  TRACK 14 AUDIO
    TITLE "0:"
    INDEX 01 00:21:09
  TRACK 15 AUDIO
    TITLE "10:cjc041_2214"
    INDEX 01 00:21:62
  TRACK 16 AUDIO
    TITLE "0:"
    INDEX 01 00:23:03
  TRACK 17 AUDIO
    TITLE "11:cjc041_2215"
    INDEX 01 00:23:50
  TRACK 18 AUDIO
    TITLE "0:"
    INDEX 01 00:24:72
  TRACK 19 AUDIO
    TITLE "10:cjc041_2216"
    INDEX 01 00:25:50
  TRACK 20 AUDIO
    TITLE "0:"
    INDEX 01 00:26:60
  TRACK 21 AUDIO
    TITLE "11:cjc041_2217"
    INDEX 01 00:27:43
  TRACK 22 AUDIO
    TITLE "0:"
    INDEX 01 00:29:21
  TRACK 23 AUDIO
    TITLE "10:cjc041_2218"
    INDEX 01 00:29:72
  TRACK 24 AUDIO
    TITLE "0:"
    INDEX 01 00:31:14
  TRACK 25 AUDIO
    TITLE "11:cjc041_2219"
    INDEX 01 00:31:65
  TRACK 26 AUDIO
    TITLE "0:"
    INDEX 01 00:34:36
  TRACK 27 AUDIO
    TITLE "10:cjc041_2220"
    INDEX 01 00:35:10
  TRACK 28 AUDIO
    TITLE "0:"
    INDEX 01 00:36:23
  TRACK 29 AUDIO
    TITLE "11:cjc041_2221"
    INDEX 01 00:37:01
  TRACK 30 AUDIO
    TITLE "0:"
    INDEX 01 00:37:73
  TRACK 31 AUDIO
    TITLE "10:cjc041_2222"
    INDEX 01 00:38:53
  TRACK 32 AUDIO
    TITLE "0:"
    INDEX 01 00:39:58
  TRACK 33 AUDIO
    TITLE "11:cjc041_2223"
    INDEX 01 00:40:38
  TRACK 34 AUDIO
    TITLE "0:"
    INDEX 01 00:41:49
  TRACK 35 AUDIO
    TITLE "10:cjc041_2224"
    INDEX 01 00:42:35
  TRACK 36 AUDIO
    TITLE "0:"
    INDEX 01 00:43:52
  TRACK 37 AUDIO
    TITLE "11:cjc041_2225"
    INDEX 01 00:44:28
  TRACK 38 AUDIO
    TITLE "0:"
    INDEX 01 00:45:28
  TRACK 39 AUDIO
    TITLE "10:cjc041_2226"
    INDEX 01 00:46:06
  TRACK 40 AUDIO
    TITLE "0:"
    INDEX 01 00:47:15
  TRACK 41 AUDIO
    TITLE "11:cjc041_2227"
    INDEX 01 00:47:72
  TRACK 42 AUDIO
    TITLE "0:"
    INDEX 01 00:50:44
  TRACK 43 AUDIO
    TITLE "10:cjc041_2228"
    INDEX 01 00:51:22
  TRACK 44 AUDIO
    TITLE "0:"
    INDEX 01 00:52:30
  TRACK 45 AUDIO
    TITLE "11:cjc041_2229"
    INDEX 01 00:53:04
  TRACK 46 AUDIO
    TITLE "0:"
    INDEX 01 00:55:57
  TRACK 47 AUDIO
    TITLE "10:cjc041_2230"
    INDEX 01 00:56:31
  TRACK 48 AUDIO
    TITLE "0:"
    INDEX 01 00:57:48
  TRACK 49 AUDIO
    TITLE "11:cjc041_2231"
    INDEX 01 00:58:18
  TRACK 50 AUDIO
    TITLE "0:"
    INDEX 01 00:59:57
  TRACK 51 AUDIO
    TITLE "10:cjc041_2232"
    INDEX 01 01:00:39
  TRACK 52 AUDIO
    TITLE "0:"
    INDEX 01 01:01:52
  TRACK 53 AUDIO
    TITLE "11:cjc041_2233"
    INDEX 01 01:02:28
  TRACK 54 AUDIO
    TITLE "0:"
    INDEX 01 01:05:21
  TRACK 55 AUDIO
    TITLE "10:cjc041_2234"
    INDEX 01 01:05:69
  TRACK 56 AUDIO
    TITLE "0:"
    INDEX 01 01:07:06
  TRACK 57 AUDIO
    TITLE "11:cjc041_2235"
    INDEX 01 01:07:57
  TRACK 58 AUDIO
    TITLE "0:"
    INDEX 01 01:09:14
  TRACK 59 AUDIO
    TITLE "10:cjc041_2236"
    INDEX 01 01:09:61
  TRACK 60 AUDIO
    TITLE "0:"
    INDEX 01 01:11:07
  TRACK 61 AUDIO
    TITLE "11:cjc041_2237"
    INDEX 01 01:11:58
  TRACK 62 AUDIO
    TITLE "0:"
    INDEX 01 01:13:22
